[img]http://img841.imageshack.us/img841/8658/87f75eb820182afc3a05c2e.jpg[/img]
[code]
Plot:
Kevin Carson is a young man living in the projects who has to survive a three-day weekend after his opportunistic neighbors find out he's holding a winning lottery ticket worth $370 million.
 
http://www.imdb.com/title/tt0979434/

Source                           : VOBS-Seazer73
Complete name                    : Lottery.Ticket.2010.CAM.XviD-TA.avi
Format                           : AVI
Format/Info                      : Audio Video Interleave
File size                        : 730 MiB
Duration                         : 1h 34mn
Overall bit rate                 : 1 082 Kbps
Writing library                  : VirtualDub build 32661/release

Video
ID                               : 0
Format                           : MPEG-4 Visual
Format profile                   : AdvancedSimple@L5
Format settings, BVOP            : Yes
Format settings, QPel            : No
Format settings, GMC             : No warppoints
Format settings, Matrix          : Default (H.263)
Muxing mode                      : Packed bitstream
Codec ID                         : XVID
Codec ID/Hint                    : XviD
Duration                         : 1h 34mn
Bit rate                         : 913 Kbps
Width                            : 540 pixels
Height                           : 230 pixels
Display aspect ratio             : 2.35:1
Frame rate                       : 25.000 fps
Resolution                       : 24 bits
Colorimetry                      : 4:2:0
Scan type                        : Progressive
Bits/(Pixel*Frame)               : 0.294
Stream size                      : 615 MiB (84%)
Writing library                  : XviD 1.2.1 (UTC 2008-12-04)

Audio
ID                               : 1
Format                           : MPEG Audio
Format version                   : Version 1
Format profile                   : Layer 3
Codec ID                         : 55
Codec ID/Hint                    : MP3
Duration                         : 1h 34mn
Bit rate mode                    : Constant
Bit rate                         : 160 Kbps
Channel(s)                       : 2 channels
Sampling rate                    : 44.1 KHz
Resolution                       : 16 bits
Stream size                      : 108 MiB (15%)
Alignment                        : Split accross interleaves
Interleave, duration             : 40 ms (1.00 video frame)
Interleave, preload duration     : 500 ms

Notes: Wasn't much that could be done with the source. IF U MUST HAVE THIS, ENJOY! If not, WAIT FOR BETTER! (Cry babbies will be hunted down and shot!)

Needs: We are looking for Audio Syncers and any other Exclusive CAM sources. Both Audio and Video
All deotting done by "dedots crew" find us on irc Efnet channel #ddcrew

Contact us: ta_rg@hushmail.com

Greetz: IMAGiNE - PrisM - KINGDOM - LU - SLUGGER - Relizlab - ELEKTRI4KA
and all those that contribute...
[/code]
Screens:
[img]http://img838.imageshack.us/img838/5185/33837007.png[/img]
[img]http://img830.imageshack.us/img830/4096/58406261.png[/img]
[img]http://img825.imageshack.us/img825/9659/25936632.png[/img]
[img]http://img830.imageshack.us/img830/8792/94758993.png[/img]